<svg xmlns="http://www.w3.org/2000/svg" version="1.0" width="600.000000" height="600.000000" preserveAspectRatio="xMidYMid meet" id="svgcontent"><rect id="backgroundrect" width="100%" height="100%" x="0" y="0" fill="none" stroke="none"></rect>
<g class="currentLayer" style="pointer-events:all"><title>Layer 1</title><g transform="translate(0,600) scale(0.10000000149011612,-0.10000000149011612) " fill="#ffffff" stroke="none" id="svg_1" class="" fill-opacity="1">
<path d="M2785.4301063915805,5520.2555524926565 c-368.52860951423645,-42.749410808086395 -619.0199382305145,-113.69524151086807 -900.1468970775604,-255.58690291643143 c-234.27246570587158,-118.2430511713028 -409.97681498527527,-246.49128359556198 -595.5926916599274,-433.86104160547256 c-196.4284520149231,-199.19406312704086 -325.27830815315247,-381.1064495444298 -454.12816429138184,-643.0602859854698 c-140.56347942352295,-284.69288474321365 -225.26198625564575,-568.4762075543404 -280.2259109020233,-940.4870377779007 c-72.98488354682922,-493.8921291232109 16.218863010406494,-1033.262354850769 249.5902807712555,-1498.0485021471977 c228.86617803573608,-457.5096518397331 567.6602053642273,-797.6858144402504 1025.3925614356995,-1030.5336690545082 c329.7835478782654,-168.26895743608475 665.8744313716888,-255.58690291643143 1063.236575126648,-276.50682735443115 c708.2236847877502,-39.11116307973862 1435.3693764209747,181.00282448530197 2065.2018899917603,623.959485411644 c199.13159584999084,140.07253754138947 236.07456159591675,184.64107221364975 244.18399310112,292.87894213199615 c7.208383560180664,112.78567957878113 -41.44820547103882,202.83231085538864 -135.15719175338745,250.12953132390976 c-37.844013690948486,19.100800573825836 -59.46916437149048,23.64861023426056 -112.63099312782288,23.64861023426056 c-76.58907532691956,0 -112.63099312782288,-12.733867049217224 -179.30854105949402,-63.66933524608612 c-416.28415060043335,-317.43711429834366 -876.7196505069733,-518.4503012895584 -1353.3740134239197,-591.215255856514 c-159.4854862689972,-24.558172166347504 -437.00825333595276,-33.65379148721695 -592.8895478248596,-19.100800573825836 c-352.30974650382996,32.744229555130005 -680.2911984920502,144.6203472018242 -952.4076778888702,324.7136097550392 c-229.76722598075867,151.89684265851974 -425.2946300506592,358.36740124225616 -563.1549656391144,594.8535035848618 c-201.8347396850586,344.723972260952 -308.1583971977234,818.6057388782501 -267.61123967170715,1186.9783213734627 c64.87545204162598,594.8535035848618 265.809143781662,1060.5492128133774 603.7021231651306,1400.7253754138947 c264.0070478916168,265.5920841693878 591.0874519348145,437.49928933382034 980.3401641845703,512.9929296970367 c153.1781506538391,30.01554375886917 293.74163007736206,40.02072501182556 470.34702730178833,34.563353419303894 c841.5787806510925,-26.377296030521393 1578.6359996795654,-513.9024916291237 1802.095890045166,-1192.4356929659843 c59.46916437149048,-180.09326255321503 71.18278765678406,-259.2251506447792 71.18278765678406,-487.5251955986023 c0,-216.4757398366928 -6.307335615158081,-277.4163892865181 -53.1618287563324,-463.87658536434174 c-38.74506163597107,-152.8064045906067 -112.63099312782288,-354.7291535139084 -174.8033013343811,-481.1582620739937 c-41.44820547103882,-81.86057388782501 -170.2980616092682,-198.28450119495392 -289.23639035224915,-261.0442745089531 c-43.250301361083984,-22.739048302173615 -59.46916437149048,-26.377296030521393 -126.14671230316162,-26.377296030521393 c-71.18278765678406,0 -81.09431505203247,2.7286857962608337 -139.66243147850037,33.65379148721695 c-34.239821910858154,19.100800573825836 -80.19326710700989,50.02590626478195 -101.81841778755188,68.21714490652084 c-33.33877396583557,30.01554375886917 -41.44820547103882,44.568534672260284 -60.37021231651306,110.96655571460724 c-45.05239725112915,156.44465231895447 -45.05239725112915,160.08290004730225 22.526198625564575,501.16862457990646 c73.8859314918518,369.2821444272995 92.80793833732605,513.9024916291237 92.80793833732605,700.3626877069473 c0,273.7781415581703 -55.86497259140015,459.328775703907 -186.51692461967468,623.959485411644 c-113.53204107284546,141.89166140556335 -271.2154314517975,237.39566427469254 -481.1596026420593,291.05981826782227 c-409.97681498527527,104.59962218999863 -817.2504861354828,-1.8191238641738894 -1180.3728079795837,-309.25105690956116 c-346.90345883369446,-294.69806599617004 -619.9209861755371,-784.9519473910332 -706.4215888977051,-1269.7484571933746 c-24.32829451560974,-139.16297560930252 -26.130390405654907,-352.9100296497345 -3.604191780090332,-466.60527116060257 c43.250301361083984,-222.84267336130142 148.6729109287262,-403.8454978466034 310.86154103279114,-535.7319779992104 c326.17935609817505,-264.6825222373009 826.2609655857086,-286.51200860738754 1272.2796983718872,-56.392839789390564 c110.82889723777771,57.30240172147751 200.933691740036,119.15261310338974 316.26782870292664,218.2948637008667 c80.19326710700989,69.12670683860779 88.30269861221313,74.58407843112946 88.30269861221313,57.30240172147751 c0,-20.01036250591278 54.06287670135498,-123.70042276382446 83.79745888710022,-161.90202391147614 c60.37021231651306,-76.40320229530334 213.54836297035217,-190.09844380617142 335.1898355484009,-247.40084552764893 c160.38653421401978,-75.4936403632164 353.21079444885254,-96.41356480121613 522.6078081130981,-54.573715925216675 c175.7043492794037,42.749410808086395 361.3202259540558,161.90202391147614 537.925623178482,344.723972260952 c90.1047945022583,92.77531707286835 100.01632189750671,107.32830798625946 150.47500681877136,211.9279301762581 c309.96049308776855,649.4272195100784 368.52860951423645,1304.3118106126785 168.49596571922302,1868.2402085065842 c-69.38069176673889,192.82712960243225 -194.62635612487793,418.3984887599945 -325.27830815315247,582.1196365356445 c-72.08383560180664,91.8657551407814 -219.85569858551025,240.12435007095337 -324.3772602081299,327.44229555130005 c-375.7369930744171,311.979742705822 -855.0944998264313,511.17380583286285 -1383.108595609665,572.1144552826881 c-109.92784929275513,12.733867049217224 -468.54493141174316,18.19123864173889 -554.1444861888885,9.095619320869446 zm556.8476300239563,-1585.3664476275444 c124.34461641311646,-32.744229555130005 211.746267080307,-90.95619320869446 251.39237666130066,-168.26895743608475 c27.03143835067749,-53.66415399312973 43.250301361083984,-145.52990913391113 43.250301361083984,-255.58690291643143 c0,-123.70042276382446 -15.317815065383911,-243.76259779930115 -63.974404096603394,-495.7112529873848 c-36.04191780090332,-191.9175676703453 -37.844013690948486,-196.46537733078003 -78.39117121696472,-259.2251506447792 c-49.557636976242065,-74.58407843112946 -229.76722598075867,-260.13471257686615 -354.1118423938751,-363.82477283477783 c-118.03728079795837,-98.23268866539001 -221.65779447555542,-159.1733381152153 -338.7940273284912,-198.28450119495392 c-359.5181300640106,-119.15261310338974 -656.863951921463,-1.8191238641738894 -715.4320683479309,283.7833228111267 c-13.515719175338745,64.57889717817307 -5.406287670135498,245.58172166347504 14.416767120361328,337.44747680425644 c100.01632189750671,458.41921377182007 407.2736711502075,894.0993792414665 746.9687464237213,1059.6396508812904 c175.7043492794037,85.49882161617279 325.27830815315247,103.69006025791168 494.67532181739807,60.03108751773834 z" id="svg_2" fill="#ffffff" fill-opacity="1"></path>
</g></g></svg>