<svg xmlns="http://www.w3.org/2000/svg" version="1.0" width="776.000000" height="980.000000" preserveAspectRatio="xMidYMid meet" id="svgcontent"><rect id="backgroundrect" width="100%" height="100%" x="0" y="0" fill="none" stroke="none"></rect>
<g class="currentLayer" style="pointer-events:all"><title>Layer 1</title><g transform="translate(0,980) scale(0.10000000149011612,-0.10000000149011612) " fill="#ffffff" stroke="none" id="svg_1" class="selected" fill-opacity="1">
<path d="M1945.1215062391311,8174.428560484008 c-231.73264764271167,-36.269958831706724 -427.46163534093415,-230.42091493084274 -488.99516324606105,-484.31062675278974 c-13.746851978804932,-56.89405306934389 -14.401463977795641,-75.38462031688066 -17.019911973758486,-478.62122144585555 c-2.6184479959628435,-441.64008695078206 0.6546119989907135,-509.9129506339947 26.184479959628437,-600.9434355449449 c47.13206392733119,-165.70392956446406 162.34377574969636,-312.20611621802465 309.6314755226063,-392.5689661784728 c39.931331938433374,-22.04644556437076 126.34011580520719,-51.9158234257763 168.88989573960345,-58.316404396077495 l30.766763952563416,-4.978229643567589 l0,-1457.19893423857 l0,-1457.19893423857 l-24.220643962656307,-4.267053980200791 c-134.85007179208645,-24.891148217837955 -240.24260362959095,-83.91872827728224 -336.4705674812255,-187.7503751288348 c-83.13572387182028,-91.03048491095021 -130.26778779915145,-179.21626716843323 -158.4161037557521,-297.98260295068866 c-14.401463977795641,-61.161107049544675 -14.401463977795641,-69.69521500994627 -14.401463977795641,-527.6923422181648 c0,-460.13065419831867 0.6546119989907135,-466.53123516861996 15.05607597678635,-522.714112574597 c49.75051192329403,-194.150956099136 183.94597171638978,-364.12193964380083 344.32591146911403,-435.9506816438476 c108.66559183245802,-48.359945108942306 90.33645586071812,-46.9375937822087 542.0187351643087,-49.78229643567591 c350.21741946003044,-2.1335269901003957 419.6062913530458,-0.7111756633667989 470.01141527533053,9.245283623768383 c132.2316237961236,24.179972554471153 223.87730365482315,76.09579598024746 320.7598795054484,181.34979415853365 c98.84641184759737,107.38752516838657 153.17920776382638,224.02033396054154 170.19911973758488,363.41076398043407 c4.582283992934976,39.825837148540714 6.546119989907108,204.10741538627119 5.236895991925688,497.1117886933922 c-2.6184479959628435,426.70539802007914 -2.6184479959628435,438.79538429731474 -17.019911973758486,494.26708603992506 c-28.802927955591283,111.65457914858736 -72.00731988897819,194.150956099136 -147.9423117719007,280.20321136651864 c-92.95490385668097,104.5428225149194 -197.038211696204,166.41510522783088 -329.2698354923277,193.43978043576922 l-41.24055593641479,8.534107960401583 l0,290.1596706536538 l0,290.1596706536538 l682.7603149473115,2.1335269901003957 c761.9683668251874,2.844702653467194 710.2540189049215,-0.7111756633667989 805.8273707575651,54.049350415876695 c48.441287925312615,27.024675207938348 55.642019914210444,34.84760750497313 893.5453786223205,955.8200915649775 l140.08696778401213,154.32511895059525 l367.23733143378877,2.1335269901003957 l367.23733143378877,2.844702653467194 l58.91507990916399,19.201742910903562 c226.495751650786,76.09579598024746 392.76719939442654,288.73731932692027 421.57012735001786,538.3599771686665 c9.819179984860666,80.36284996044824 9.819179984860666,826.38612083222 0,901.0595654857339 c-28.802927955591283,232.55444192094316 -176.74523972749193,436.6618573072144 -379.6749594146124,524.1364639013306 c-104.08330783952304,44.09289112874151 -94.9187398536531,43.38171546537471 -545.9464071582529,43.38171546537471 c-375.0926754216774,0 -417.6424553560736,-1.4223513267335979 -468.04757927835834,-12.801161940602375 c-216.0219596669346,-50.4934720990427 -392.11258739543587,-233.97679324767674 -452.991503301572,-470.79828914882074 c-14.401463977795641,-55.47170174261029 -14.401463977795641,-68.27286368321266 -17.019911973758486,-490.71120772309104 c-1.3092239979814222,-248.9114821783796 0.6546119989907135,-451.59654623791715 3.927671993944266,-476.4876944557551 l6.546119989907108,-41.95936413864112 l-377.0565114186495,-414.61541174284366 l-376.40189941965883,-414.61541174284366 l-564.9301551289835,0 l-565.5847671279743,0 l0,728.2438792876017 l0,727.532703624235 l41.24055593641479,8.534107960401583 c132.2316237961236,27.024675207938348 236.31493163564664,88.89695792084983 329.2698354923277,193.43978043576922 c75.93499188292247,86.05225526738265 119.1393838163094,168.54863221793127 147.9423117719007,280.20321136651864 c14.401463977795641,55.47170174261029 14.401463977795641,67.56168801984587 17.019911973758486,497.8229643567592 c2.6184479959628435,476.4876944557551 0.6546119989907135,510.62412629736156 -31.42137595155413,613.0334218221806 c-53.02357191824758,172.81568619813208 -202.2751076881297,337.8084400992293 -358.0727634479189,396.8360201586737 c-98.19179984860664,36.98113449507353 -128.30395180217937,39.11466148517393 -547.9102431552252,38.403485821807124 c-212.7488996719811,-0.7111756633667989 -404.5502153762594,-3.5558783168339945 -426.15241134295286,-7.111756633667986 zm809.1004307525188,-595.9652059013773 l18.98374797073062,-20.624094237637156 l0,-392.5689661784728 l0,-392.5689661784728 l-18.98374797073062,-20.624094237637156 l-18.98374797073062,-20.624094237637156 l-361.3458234428725,0 l-361.3458234428725,0 l-18.98374797073062,20.624094237637156 l-18.98374797073062,20.624094237637156 l0,392.5689661784728 l0,392.5689661784728 l18.98374797073062,20.624094237637156 l18.98374797073062,20.624094237637156 l361.3458234428725,0 l361.3458234428725,0 l18.98374797073062,-20.624094237637156 zm3210.8718550494373,-1162.0610339413488 l15.710687975777065,-19.91291857427036 l0,-393.2801418418397 l0,-392.5689661784728 l-20.292971968712045,-21.335269901003958 l-19.63835996972133,-20.624094237637156 l-360.0365994448911,0 l-360.69121144388174,0 l-18.98374797073062,23.46879689110435 l-18.98374797073062,22.757621227737552 l0,389.72426352500565 c0,421.7271683765116 -0.6546119989907135,412.4818847527432 35.34904794549839,428.1277493468127 c7.200731988897822,3.5558783168339945 175.4360157295105,5.689405306934388 372.47422742571456,4.978229643567589 l359.3819874459004,-1.4223513267335979 l15.710687975777065,-19.91291857427036 zm-3210.8718550494373,-3773.4980698242334 l18.98374797073062,-20.624094237637156 l0,-392.5689661784728 l0,-392.5689661784728 l-18.98374797073062,-20.624094237637156 l-18.98374797073062,-20.624094237637156 l-361.3458234428725,0 l-361.3458234428725,0 l-18.98374797073062,20.624094237637156 l-18.98374797073062,20.624094237637156 l0,392.5689661784728 l0,392.5689661784728 l18.98374797073062,20.624094237637156 l18.98374797073062,20.624094237637156 l361.3458234428725,0 l361.3458234428725,0 l18.98374797073062,-20.624094237637156 z" id="svg_2" fill="#ffffff" fill-opacity="1"></path>
</g></g></svg>