<svg xmlns="http://www.w3.org/2000/svg" version="1.0" width="571.9999976158142" height="591.9999968210855" preserveAspectRatio="xMidYMid meet" id="svgcontent"><rect id="backgroundrect" width="100%" height="100%" x="0" y="0" fill="none" stroke="none" class="" style=""></rect>
<metadata>
Created by potrace 1.16, written by Peter Selinger 2001-2019
</metadata>

<g class="currentLayer" style="pointer-events:all"><title>Layer 1</title><g transform="translate(0,512) scale(0.10000000149011612,-0.10000000149011612) " fill="#ffffff" stroke="#dadada" id="svg_1" class="selected" stroke-opacity="1" fill-opacity="1">
<path d="M3020.6666469573975,4482 c-231,-112 -286,-422 -107,-613 c26,-28 70,-63 98,-77 c44,-24 61,-27 150,-27 c86,0 107,3 150,24 c69,35 131,100 168,179 c29,61 32,75 32,167 c0,91 -3,106 -31,166 c-40,83 -88,137 -156,174 c-46,25 -66,30 -148,33 c-88,3 -99,1 -156,-26 z" id="svg_2" stroke="#dadada" stroke-opacity="1" fill="#ffffff" fill-opacity="1"></path>
<path d="M3925.6666469573975,3580 l3,-210 l-121,0 l-121,0 l0,-251 c0,-209 2,-250 14,-246 c25,10 174,20 200,13 l24,-6 l5,-598 c4,-557 6,-603 25,-692 c11,-52 28,-114 36,-138 c98,-271 321,-388 672,-353 c127,13 203,30 292,67 l62,26 l0,259 l0,259 l-58,-29 c-57,-29 -184,-61 -239,-61 c-86,0 -156,48 -194,132 l-24,53 l-3,538 l-3,539 l261,-4 l260,-3 l0,248 l0,247 l-261,0 l-261,0 l4,210 l4,210 l-291,0 l-290,0 l4,-210 z" id="svg_3" stroke="#dadada" stroke-opacity="1" fill="#ffffff" fill-opacity="1"></path>
<path d="M1459.6666469573975,3386 c-299,-57 -540,-249 -637,-508 c-72,-189 -74,-397 -8,-588 c63,-181 196,-351 320,-410 l50,-24 l-41,-37 c-156,-137 -154,-456 3,-603 c54,-50 57,-56 36,-56 c-8,0 -60,-23 -117,-51 c-220,-111 -329,-285 -329,-529 c0,-362 249,-595 705,-660 c93,-13 384,-13 480,1 c363,50 592,228 666,516 c26,104 35,268 19,361 c-27,161 -124,285 -283,361 c-99,47 -135,60 -342,116 c-260,71 -333,106 -379,185 c-28,48 -27,133 3,186 c32,56 71,79 199,113 c130,36 220,71 277,108 c243,157 372,382 391,683 c6,88 -7,192 -31,251 c-5,13 2,18 30,23 c21,4 66,16 101,27 l64,20 l0,265 c0,209 -3,265 -12,261 c-162,-61 -329,-103 -454,-113 c-79,-7 -85,-5 -167,30 c-46,20 -120,45 -163,57 c-102,26 -283,34 -381,15 zm288,-484 c144,-70 217,-251 180,-444 c-34,-173 -130,-244 -314,-236 c-79,3 -100,8 -146,33 c-97,53 -144,150 -144,300 c0,96 21,175 65,241 c34,51 108,107 162,124 c51,15 146,7 197,-18 zm117,-2048 c149,-33 222,-111 222,-236 c0,-110 -70,-198 -184,-234 c-125,-39 -390,-25 -498,26 c-128,60 -174,205 -103,326 c46,79 134,120 280,133 c100,8 202,3 283,-15 z" id="svg_4" stroke="#dadada" stroke-opacity="1" fill="#ffffff" fill-opacity="1"></path>
<path d="M2881.6666469573975,2250 l0,-1120 l289,0 l289,0 l-7,68 c-9,88 -9,2076 0,2130 l7,42 l-289,0 l-289,0 l0,-1120 z" id="svg_5" stroke="#dadada" stroke-opacity="1" fill="#ffffff" fill-opacity="1"></path>
</g></g></svg>