<svg xmlns="http://www.w3.org/2000/svg" version="1.0" width="776" height="980" preserveAspectRatio="xMidYMid meet" id="svgcontent"><rect id="backgroundrect" width="100%" height="100%" x="0" y="0" fill="none" stroke="none"></rect>
<g class="currentLayer" style="pointer-events:all"><title>Layer 1</title><g transform="translate(0,980) scale(0.10000000149011612,-0.10000000149011612) " fill="#ffffff" stroke="none" id="svg_1" class="selected" fill-opacity="1">
<path d="M2408.207285344592,8130.587949018292 c-214.85244731750873,-34.031825950202034 -396.32386468455707,-216.20218838951882 -453.3750795089804,-454.424970040933 c-12.745484162903065,-53.38325639247379 -13.352411980184161,-70.73281472002778 -15.780123249308554,-449.0866444016858 c-2.4277112691243925,-414.38752774657786 0.6069278172811012,-478.4474354175464 24.27711269124393,-563.8606456455044 c43.69880284423907,-155.47873424307988 150.51809868571243,-292.9406194536999 287.0768575739595,-368.3444691080691 c37.022596854147,-20.686011852083595 117.13706873525194,-48.712221458132326 156.58737685852338,-54.717837802285636 l28.52560741221162,-4.671034934341456 l0,-1367.2786543522345 l0,-1367.2786543522345 l-22.456329239400638,-4.003744229435535 c-125.02713035990625,-23.35517467170728 -222.74250894216308,-78.74030317889884 -311.9608980824845,-176.16474609516348 c-77.07983279469946,-85.41321022795803 -120.77863563893852,-168.15725763629243 -146.8765317820258,-279.59480535558146 c-13.352411980184161,-57.387000621909316 -13.352411980184161,-65.39448908078039 -13.352411980184161,-495.12970304019444 c0,-431.7370860741317 0.6069278172811012,-437.7427024182851 13.959339797465256,-490.45866810585295 c46.12651411336346,-182.1703624393168 170.5467166559886,-341.65284091183213 319.24403188985775,-409.0492021073304 c100.75001766866231,-45.37576793360272 83.75603878479156,-44.04118652379087 502.5362327087493,-46.71034934341456 c324.7063822453876,-2.0018721147177674 389.04073087718405,-0.6672907049059231 435.77417280782856,8.674779163776991 c122.59941909078184,22.68788396680136 207.5693135101356,71.4001054249337 297.3946304677381,170.15912975101023 c91.64610040944584,100.76089644079427 142.021109243777,210.1965720453655 157.8012324930856,340.9855502069263 c4.248494720967687,37.368279474731644 6.069278172810981,191.5124323079997 4.855422538248786,466.43620272923965 c-2.4277112691243925,400.3744229435534 -2.4277112691243925,411.71836492695405 -15.780123249308554,463.767039909616 c-26.704823960368323,104.7646406702298 -66.76205990092079,182.1703624393168 -137.1656867055282,262.9125377329334 c-86.18375005391597,98.09173362117058 -182.68527300161057,156.14602494798584 -305.2846920923925,181.50307173441087 l-38.23645248870919,8.007488458871068 l0,272.25460760161627 l0,272.25460760161627 l633.0257134241854,2.0018721147177674 c706.4639793151982,2.669162819623689 658.5166817499918,-0.6672907049059231 747.1281430730319,50.714093572850096 c44.912658478801276,25.357046786425048 51.58886446889336,32.697244540390194 828.4564705886992,896.8387073935597 l129.882552898155,144.80208296458508 l340.486505494696,2.0018721147177674 l340.486505494696,2.669162819623689 l54.623503555298846,18.016849032459906 c209.99702477926,71.4001054249337 364.15669036865893,270.9200261918045 390.8615143290273,505.1390636137832 c9.103917259216475,75.40384965436922 9.103917259216475,775.3917991006816 0,845.4573231158035 c-26.704823960368323,218.2040605042366 -163.87051066589652,409.71649281223637 -352.01813402303696,491.7932495156648 c-96.50152294769461,41.372023704167184 -88.00453350575924,40.70473299926125 -506.1777996124359,40.70473299926125 c-347.7696393020693,0 -387.21994742534065,-1.3345814098118456 -433.9533893559853,-12.011232688306603 c-200.2861797027624,-47.37764004832048 -363.54976255137785,-219.53864191404844 -419.99404955852,-441.74644664772063 c-13.352411980184161,-52.04867498266195 -13.352411980184161,-64.05990767096854 -15.780123249308554,-460.43058638508643 c-1.2138556345621967,-233.55174671707292 0.6069278172811012,-423.72959761526073 3.6415669036865896,-447.08477228696796 l6.069278172810981,-39.37015158944942 l-349.59042275391255,-389.03048096015283 l-348.98349493663153,-389.03048096015283 l-523.7787063135878,0 l-524.3856341308688,0 l0,683.3056818236643 l0,682.6383911187585 l38.23645248870919,8.007488458871068 c122.59941909078184,25.357046786425048 219.10094203847646,83.41133811324029 305.2846920923925,181.50307173441087 c70.4036268046074,80.74217529361661 110.46086274515989,158.14789706270358 137.1656867055282,262.9125377329334 c13.352411980184161,52.04867498266195 13.352411980184161,63.39261696606262 15.780123249308554,467.10349343414583 c2.4277112691243925,447.08477228696796 0.6069278172811012,479.11472612245234 -29.132535229492717,575.2045876289052 c-49.161153199768954,162.15164129213915 -187.54069553985937,316.96308483031305 -331.98951605276073,372.3482133375048 c-91.03917259216473,34.699116655107964 -118.95785218709527,36.700988769825734 -507.9985830642792,36.03369806491981 c-197.25154061635698,-0.6672907049059231 -375.08139107971874,-3.336453524529613 -395.11000904999497,-6.672907049059225 zm750.1627821594375,-559.1896107111629 l17.60090670115185,-19.35143044227174 l0,-368.3444691080691 l0,-368.3444691080691 l-17.60090670115185,-19.35143044227174 l-17.60090670115185,-19.35143044227174 l-335.0241551391662,0 l-335.0241551391662,0 l-17.60090670115185,19.35143044227174 l-17.60090670115185,19.35143044227174 l0,368.3444691080691 l0,368.3444691080691 l17.60090670115185,19.35143044227174 l17.60090670115185,19.35143044227174 l335.0241551391662,0 l335.0241551391662,0 l17.60090670115185,-19.35143044227174 zm2976.980943763787,-1090.353011816277 l14.566267614746359,-18.684139737365825 l0,-369.0117598129751 l0,-368.3444691080691 l-18.814762335714054,-20.018721147177672 l-18.207834518432946,-19.35143044227174 l-333.81029950460413,0 l-334.4172273218851,0 l-17.60090670115185,22.020593261895435 l-17.60090670115185,21.353302556989508 l0,365.6753062884454 c0,395.70338800921195 -0.6069278172811012,387.028608845435 32.7741021331793,401.7090043533652 c6.676205990092083,3.336453524529613 162.6566550313343,5.338325639247377 345.3419280329449,4.671034934341456 l333.203371687323,-1.3345814098118456 l14.566267614746359,-18.684139737365825 zm-2976.980943763787,-3540.644480230824 l17.60090670115185,-19.35143044227174 l0,-368.3444691080691 l0,-368.3444691080691 l-17.60090670115185,-19.35143044227174 l-17.60090670115185,-19.35143044227174 l-335.0241551391662,0 l-335.0241551391662,0 l-17.60090670115185,19.35143044227174 l-17.60090670115185,19.35143044227174 l0,368.3444691080691 l0,368.3444691080691 l17.60090670115185,19.35143044227174 l17.60090670115185,19.35143044227174 l335.0241551391662,0 l335.0241551391662,0 l17.60090670115185,-19.35143044227174 z" id="svg_2" fill="#ffffff" fill-opacity="1"></path>
</g></g></svg>