<svg xmlns="http://www.w3.org/2000/svg" version="1.0" width="228" height="230.9090908893869" preserveAspectRatio="xMidYMid meet" id="svgcontent"><rect id="backgroundrect" width="100%" height="100%" x="0" y="0" fill="none" stroke="none" class="" style=""></rect>
<g class="currentLayer" style="pointer-events:all"><title>Layer 1</title><g transform="translate(0,227) scale(0.10000000149011612,-0.10000000149011612) " fill="#ffffff" stroke="none" id="svg_1" class="selected" fill-opacity="1">
<path d="M54.14142417907715,1998.7878670692444 c-20,-20 -20,-33 -20,-873 l0,-854 l23,-21 l23,-22 l1055,0 c938,0 1057,2 1077,16 l22,15 l0,863 c0,823 -1,864 -18,879 c-17,16 -106,17 -1080,17 c-1049,0 -1062,0 -1082,-20 zm1900,-134 c-8,-7 -196,-158 -416,-334 l-401,-320 l-416,331 c-229,183 -416,334 -416,337 c-1,3 373,4 831,2 c701,-2 830,-4 818,-16 zm-1294,-444 c333,-267 458,-362 477,-362 c19,0 148,98 494,376 l468,376 l3,-694 c2,-516 -1,-699 -9,-715 c-7,-12 -26,-27 -43,-31 c-18,-6 -421,-9 -933,-8 c-870,1 -902,2 -922,20 c-21,19 -21,21 -21,724 c0,671 1,704 18,690 c9,-8 220,-178 468,-376 z" id="svg_2" fill="#ffffff" fill-opacity="1"></path>
</g></g></svg>