<svg xmlns="http://www.w3.org/2000/svg" version="1.0" width="980.000000" height="980.000000" preserveAspectRatio="xMidYMid meet" id="svgcontent"><rect id="backgroundrect" width="100%" height="100%" x="0" y="0" fill="none" stroke="none"></rect>
<g class="currentLayer" style="pointer-events:all"><title>Layer 1</title><g transform="translate(0,980) scale(0.10000000149011612,-0.10000000149011612) " fill="#ffffff" stroke="none" id="svg_1" class="selected" fill-opacity="1">
<path d="M1821 9789 c-370 -39 -732 -183 -1033 -410 -106 -80 -287 -261 -367 -367 -233 -308 -371 -663 -411 -1051 -14 -143 -14 -5979 0 -6122 40 -388 178 -743 411 -1051 80 -106 261 -287 367 -367 266 -201 550 -325 902 -393 l115 -22 3015 -4 c2112 -2 3049 0 3130 8 499 47 958 267 1289 616 315 332 504 749 551 1213 14 143 14 5979 0 6122 -64 627 -396 1178 -912 1513 -115 75 -327 176 -460 220 -128 42 -313 81 -457 96 -129 13 -6015 12 -6140 -1z m6224 -836 c259 -70 433 -168 597 -335 168 -172 280 -393 322 -638 14 -85 16 -377 16 -3080 0 -2703 -2 -2995 -16 -3080 -76 -442 -379 -798 -799 -938 -200 -66 33 -62 -3265 -62 -2634 0 -2998 2 -3076 15 -358 62 -659 268 -841 578 -51 86 -96 197 -132 327 l-26 95 -3 3015 c-2 2642 -1 3027 12 3111 72 460 385 825 825 963 181 57 -5 54 3276 52 l3030 -1 80 -22z" id="svg_2" fill="#ffffff" fill-opacity="1"></path>
<path d="M2350 7745 c-201 -57 -338 -263 -302 -457 25 -133 24 -132 558 -668 l493 -495 -493 -495 c-534 -536 -533 -535 -558 -668 -31 -167 71 -351 241 -435 60 -29 73 -32 161 -32 86 0 101 3 165 33 66 31 104 67 736 700 573 574 669 675 692 724 33 69 45 152 35 233 -17 128 -6 115 -702 813 -352 354 -663 659 -689 679 -96 71 -228 98 -337 68z" id="svg_3" fill="#ffffff" fill-opacity="1"></path>
<path d="M4390 5296 c-207 -44 -331 -237 -299 -463 25 -176 143 -301 313 -332 79 -14 1731 -15 1807 -1 131 24 245 114 291 228 19 48 22 76 22 172 0 96 -3 124 -22 172 -46 113 -160 204 -286 227 -87 16 -1751 14 -1826 -3z" id="svg_4" fill="#ffffff" fill-opacity="1"></path>
</g></g></svg>