<svg xmlns="http://www.w3.org/2000/svg" height="1861.0000008940697" width="2120.999998062849" id="svgcontent"><rect id="backgroundrect" width="100%" height="100%" x="0" y="0" fill="none" stroke="none" class="" style=""></rect><g class="currentLayer" style="pointer-events:all"><title>Layer 1</title><path d="M805.1111068725586,933.0000076293945 l-466,466 q-10,10 -23,10 t-23,-10 l-50,-50 q-10,-10 -10,-23 t10,-23 l393,-393 l-393,-393 q-10,-10 -10,-23 t10,-23 l50,-50 q10,-10 23,-10 t23,10 l466,466 q10,10 10,23 t-10,23 zm1079,457 v64 q0,14 -9,23 t-23,9 h-960 q-14,0 -23,-9 t-9,-23 v-64 q0,-14 9,-23 t23,-9 h960 q14,0 23,9 t9,23 z" id="svg_1" class="selected" fill="#ffffff" fill-opacity="1"></path></g></svg>